# xmcd CD database file generated by Grip 3.0.6
# 
# Track frame offsets:
#       202
#       12247
#       24102
#       33810
#       46555
#       56555
#       68555
#       80147
#       88500
#       103520
#       112150
#       134885
# 
# Disc length: 2060 seconds
# 
# Revision: 3
# Processed by: cddbd v1.4PL0 Copyright (c) Steve Scherf et al.
# Submitted via: Grip 3.0.6
# 
DISCID=92080a0c
DTITLE=Gabby Pahinui - The Best of Gabby Volume II
DYEAR=1989
DGENRE=Other
TTITLE0=Wai Hu`ihu`i O Ke Aniani
TTITLE1=Maile Lau Li`ili`i
TTITLE2=`Ia `Oe E Ka La
TTITLE3=Haleakala
TTITLE4=Panini Pua Kea
TTITLE5=He`eia
TTITLE6=`Ama `Ama
TTITLE7=Nanea Ko Maka I Ka Le`a Le`a
TTITLE8=Pua Kukui
TTITLE9=Kananaka
TTITLE10=Mauna Loa
TTITLE11=Farewell Medley
EXTD=
EXTT0=
EXTT1=
EXTT2=
EXTT3=
EXTT4=
EXTT5=
EXTT6=
EXTT7=
EXTT8=
EXTT9=
EXTT10=
EXTT11=
PLAYORDER=
